<?xml version="1.0" encoding="utf-8"?>
<!-- Generator: Adobe Illustrator 19.0.0, SVG Export Plug-In . SVG Version: 6.00 Build 0)  -->
<svg version="1.1" id="Layer_1" xmlns="http://www.w3.org/2000/svg" xmlns:xlink="http://www.w3.org/1999/xlink" x="0px" y="0px"
	 viewBox="-41 164.89 512 512" enable-background="new -41 164.89 512 512" xml:space="preserve">
<circle fill="#F0F0F0" cx="215" cy="420.89" r="256"/>
<g>
	<path fill="#338AF3" d="M215,164.89c-101.49,0-189.19,59.07-230.6,144.7h461.2C404.19,223.96,316.49,164.89,215,164.89z"/>
	<path fill="#338AF3" d="M215,676.89c101.49,0,189.19-59.07,230.6-144.7H-15.6C25.81,617.83,113.51,676.89,215,676.89z"/>
</g>
<polygon fill="#FFDA44" points="291.52,420.89 260.25,435.6 276.9,465.88 242.95,459.38 238.65,493.68 215,468.45 191.35,493.68 
	187.05,459.38 153.1,465.88 169.75,435.6 138.49,420.89 169.75,406.18 153.1,375.9 187.05,382.4 191.35,348.1 215,373.33 
	238.65,348.1 242.95,382.4 276.9,375.9 260.25,406.18 "/>
</svg>
