<?xml version="1.0" encoding="utf-8"?>
<!-- Generator: Adobe Illustrator 19.0.0, SVG Export Plug-In . SVG Version: 6.00 Build 0)  -->
<svg version="1.1" id="Capa_1" xmlns="http://www.w3.org/2000/svg" xmlns:xlink="http://www.w3.org/1999/xlink" x="0px" y="0px"
	 viewBox="-298.61 420.28 99.21 99.21" enable-background="new -298.61 420.28 99.21 99.21" xml:space="preserve">
<path opacity="0.5" fill="#ADDDF8" d="M-207.52,518.39h-82.96c-3.88,0-7.02-3.14-7.02-7.02v-82.96c0-3.88,3.14-7.02,7.02-7.02h82.96
	c3.88,0,7.02,3.14,7.02,7.02v82.96C-200.5,515.25-203.64,518.39-207.52,518.39z"/>
<g opacity="0.5">
	<path fill="#ADDDF8" d="M-229.78,480.84c1.79-0.31,3.69-0.87,4.07-1.19c3.81-3.7,3.88-8.91,3.88-8.96c0-1.27-1.35-2.3-3.01-2.3
		c-0.69,0.01-4.26,0.6-6.8,1.12v12.24c0.5-0.37,1.06-0.66,1.68-0.87L-229.78,480.84z"/>
	<path fill="#ADDDF8" d="M-238.41,440.6c3.03,2.9,2.15,6.12,1,9.13c-1.18,3.06-2.43,6.34-1.15,9.28c-3.23-2.93-2.33-6.22-1.15-9.28
		c1.15-2.99,2.37-6.18,1.23-9.06l1.21,2.11l-1.74,8.79l-11.11-11.11l-0.2,0.2c2.97,2.89,2.1,6.08,0.95,9.08
		c-0.36,0.94-0.73,1.9-1.03,2.86c-0.33,1.07-0.58,2.14-0.64,3.19c-0.07,1.1,0.07,2.19,0.52,3.23c-0.67-0.61-1.16-1.24-1.51-1.87
		c-0.4-0.73-0.62-1.48-0.69-2.23c-0.16-1.73,0.4-3.48,1.05-5.17c1.14-2.96,2.35-6.13,1.26-8.99l1.4,3.04l-2.32,7.33l-10.65-10.65
		l-0.25,0.25c2.91,2.87,2.04,6.05,0.9,9.03c-0.38,0.98-0.76,1.99-1.07,3c-0.03,0.09-0.05,0.18-0.08,0.26
		c-0.58,2.01-0.82,4.03-0.04,5.9l3.91,3.77h26.95v4.18c2.89-0.58,6.31-1.06,6.74-1.06c3.19,0,5.74,2.2,5.74,4.92
		c0,0.26-0.05,6.33-4.67,10.82c-1.04,1.01-4.02,1.64-5.36,1.88c-0.56,0.2-1.04,0.53-1.35,0.93l-1.91,2.1
		c-0.95,2.47-2.66,4.58-4.86,6.03h15.15c0,2.35-5.17,6.86-7.25,6.86H-271c-1.88-3.66-4.13-1.58-4.13-1.58l20.65,20.64h46.96
		c3.88,0,7.02-3.14,7.02-7.02v-33.16l-37.76-37.76L-238.41,440.6z"/>
</g>
<g>
	<path fill="#F8F1A1" d="M-263.68,492.47h-15.15c0,2.35,5.75,6.86,7.83,6.86h41.55c2.08,0,7.25-4.51,7.25-6.86h-15.15
		c2.21-1.45,3.91-3.56,4.86-6.03l1.91-2.1c0.32-0.41,0.79-0.74,1.35-0.93c1.34-0.24,4.32-0.87,5.36-1.88
		c4.62-4.49,4.67-10.57,4.67-10.82c0-2.71-2.55-4.92-5.74-4.92c-0.42,0-3.85,0.48-6.74,1.06v-4.18h-37.73v19.34
		C-269.38,486.37-267.12,490.21-263.68,492.47z M-231.65,469.52c2.53-0.52,6.11-1.11,6.8-1.12c1.66,0,3.01,1.03,3.01,2.3
		c0,0.05-0.07,5.27-3.88,8.96c-0.38,0.32-2.28,0.88-4.07,1.19l-0.18,0.05c-0.62,0.2-1.19,0.5-1.68,0.87V469.52z"/>
	<path fill="#FFFFFF" d="M-262.47,452.99c0.03-0.09,0.05-0.17,0.08-0.26c0.31-1.01,0.69-2.02,1.07-3c1.14-2.98,2.02-6.16-0.9-9.03
		c-0.08-0.08-0.16-0.17-0.25-0.25c0.05,0.12,0.09,0.24,0.14,0.36c1.04,2.84-0.15,5.98-1.28,8.92c-0.66,1.72-1.24,3.51-1.04,5.27
		c0.01,0.05,0.02,0.11,0.03,0.16c0.13,0.97,0.52,1.94,1.25,2.87c0.26,0.33,0.56,0.66,0.91,0.98c-0.02-0.04-0.03-0.07-0.04-0.11
		C-263.29,457.02-263.05,455-262.47,452.99z"/>
	<path fill="#FFFFFF" d="M-251.66,449.73c-0.65,1.69-1.21,3.45-1.05,5.17c0.07,0.75,0.29,1.5,0.69,2.23
		c0.35,0.64,0.83,1.26,1.51,1.87c-0.45-1.04-0.59-2.13-0.52-3.23c0.06-1.05,0.31-2.13,0.64-3.19c0.3-0.96,0.67-1.92,1.03-2.86
		c1.15-2.99,2.03-6.19-0.95-9.08c-0.07-0.07-0.13-0.13-0.2-0.2c0.04,0.1,0.07,0.19,0.11,0.29
		C-249.31,443.6-250.52,446.76-251.66,449.73z"/>
	<path fill="#FFFFFF" d="M-239.7,449.73c-1.18,3.06-2.08,6.34,1.15,9.28c-1.28-2.93-0.03-6.21,1.15-9.28c1.16-3.01,2.04-6.23-1-9.13
		c-0.05-0.05-0.1-0.1-0.15-0.15c0.03,0.07,0.05,0.14,0.08,0.22C-237.34,443.55-238.55,446.74-239.7,449.73z"/>
</g>
</svg>
