<?xml version="1.0" encoding="utf-8"?>
<!-- Generator: Adobe Illustrator 19.0.0, SVG Export Plug-In . SVG Version: 6.00 Build 0)  -->
<svg version="1.1" id="Capa_1" xmlns="http://www.w3.org/2000/svg" xmlns:xlink="http://www.w3.org/1999/xlink" x="0px" y="0px"
	 viewBox="-60 184.21 473.68 473.68" enable-background="new -60 184.21 473.68 473.68" xml:space="preserve">
<g>
	<rect x="-58.93" y="443.2" fill="#C42126" width="471.56" height="0.01"/>
	<rect x="-34.37" y="313.91" fill="#C42126" width="422.42" height="0.01"/>
	<rect x="-51.17" y="357" fill="#C42126" width="456" height="0.01"/>
	<polygon fill="#C42126" points="41.79,615.57 311.89,615.57 311.9,615.56 41.78,615.56 	"/>
	<path fill="#C42126" d="M176.84,184.21c-4.65,0-9.27,0.17-13.85,0.43h27.7C186.1,184.38,181.49,184.21,176.84,184.21z"/>
	<rect x="-59.02" y="400.1" fill="#C42126" width="471.71" height="0.01"/>
</g>
<path fill="#E7E7E7" d="M246.84,270.82h113.09c-13.43-16.35-29.05-30.83-46.34-43.08h-84.92
	C235.69,240.1,241.74,254.69,246.84,270.82z"/>
<path fill="#DC3027" d="M228.67,227.74h84.92c-35.11-24.88-77.26-40.46-122.9-43.1h-7.29C204.88,187.35,214.75,203.25,228.67,227.74
	z"/>
<path fill="#E7E7E7" d="M404.85,357.01c-4.21-15.02-9.86-29.43-16.8-43.08H257.94c2.64,13.83,4.72,28.28,6.26,43.08H404.85z"/>
<path fill="#DC3027" d="M250.62,313.92h137.42c-7.83-15.4-17.24-29.86-28.11-43.09H239.89
	C244.12,284.22,247.71,298.68,250.62,313.92z"/>
<path fill="#E7E7E7" d="M269.18,443.19h143.43c0.68-7.29,1.07-14.67,1.07-22.14c0-7.06-0.37-14.04-0.98-20.95H269.21
	C269.68,414.44,269.67,428.87,269.18,443.19z"/>
<path fill="#DC3027" d="M412.7,400.1c-1.3-14.8-3.96-29.19-7.86-43.08H258.15c1.47,14.11,2.45,28.54,2.92,43.08H412.7z"/>
<path fill="#E7E7E7" d="M255.46,529.38h131.96c7.04-13.64,12.77-28.06,17.08-43.09H261.85
	C260.27,501.11,258.14,515.56,255.46,529.38z"/>
<path fill="#DC3027" d="M404.51,486.29c3.98-13.89,6.73-28.28,8.11-43.08h-147.9c-0.51,14.55-1.51,28.98-3.01,43.08L404.51,486.29
	L404.51,486.29z"/>
<path fill="#E7E7E7" d="M311.9,615.56c17.55-12.21,33.38-26.7,47.02-43.08H247.81c-5.19,16.2-11.36,30.77-18.51,43.08H311.9
	L311.9,615.56z"/>
<g>
	<path fill="#DC3027" d="M243.63,572.47h115.3c11-13.22,20.55-27.67,28.5-43.09H254.5C251.55,544.63,247.92,559.09,243.63,572.47z"
		/>
	<path fill="#DC3027" d="M168.25,657.72c-0.48-0.02-0.96-0.04-1.44-0.05C167.3,657.68,167.78,657.71,168.25,657.72z"/>
	<path fill="#DC3027" d="M176.84,657.89c50.21,0,96.74-15.67,135.05-42.32h-85.71C210.96,641.78,200.92,657.89,176.84,657.89z"/>
</g>
<path fill="#C42126" d="M176.84,657.89c-2.88,0-5.73-0.07-8.58-0.17C171.13,657.82,173.99,657.89,176.84,657.89z"/>
<path fill="#F3F4F5" d="M236.51,227.74H40.09c-17.3,12.25-32.91,26.73-46.35,43.08h260.93C249.58,254.69,243.54,240.1,236.51,227.74
	z"/>
<path fill="#E73625" d="M40.09,227.74h196.42c-13.92-24.49-31.63-40.39-53.11-43.1h-20.41C117.34,187.28,75.2,202.86,40.09,227.74z"
	/>
<path fill="#F3F4F5" d="M-51.17,357.01h322.83c-1.54-14.8-3.62-29.25-6.26-43.08H-34.37C-41.31,327.58-46.95,341.99-51.17,357.01z"
	/>
<path fill="#E73625" d="M-6.25,270.82c-10.87,13.23-20.28,27.69-28.11,43.09h299.77c-2.91-15.23-6.5-29.69-10.73-43.09
	C254.68,270.82-6.25,270.82-6.25,270.82z"/>
<path fill="#F3F4F5" d="M-60,421.05c0,7.46,0.39,14.85,1.07,22.14h333.49c0.49-14.32,0.5-28.75,0.03-43.08H-59.02
	C-59.63,407.02-60,413.99-60,421.05z"/>
<path fill="#E73625" d="M-59.02,400.1h333.61c-0.48-14.54-1.45-28.97-2.92-43.08H-51.17C-55.06,370.91-57.73,385.3-59.02,400.1z"/>
<path fill="#F3F4F5" d="M271.55,486.29H-50.83c4.3,15.03,10.04,29.45,17.08,43.09h298.92C267.85,515.56,269.97,501.11,271.55,486.29
	z"/>
<path fill="#E73625" d="M-50.83,486.29h322.37c1.5-14.1,2.51-28.54,3.01-43.08H-58.93C-57.56,458.01-54.8,472.4-50.83,486.29z"/>
<path fill="#F3F4F5" d="M41.78,615.56h194.01c7.15-12.32,13.32-26.88,18.52-43.08H-5.25C8.4,588.86,24.23,603.35,41.78,615.56z"/>
<g>
	<path fill="#E73625" d="M-33.75,529.38c7.95,15.42,17.5,29.87,28.5,43.09H254.3c4.29-13.38,7.92-27.84,10.87-43.09H-33.75z"/>
	<path fill="#E73625" d="M166.82,657.67c0.48,0.02,0.96,0.04,1.44,0.05c2.85,0.1,5.71,0.17,8.58,0.17
		c24.09,0,43.73-16.11,58.94-42.32H41.79C77.54,640.43,120.45,655.74,166.82,657.67z"/>
</g>
<path fill="#283991" d="M171.94,184.34C50.57,186.8-48.35,280.51-58.99,399.71h230.94L171.94,184.34L171.94,184.34z"/>
<g>
	<polygon fill="#EFEFEF" points="-12.61,318.4 -9,329.51 2.69,329.51 -6.77,336.38 -3.16,347.5 -12.61,340.62 -22.06,347.5 
		-18.46,336.38 -27.91,329.51 -16.22,329.51 	"/>
	<polygon fill="#EFEFEF" points="-12.61,357.65 -9,368.77 2.69,368.77 -6.77,375.64 -3.16,386.76 -12.61,379.88 -22.06,386.76 
		-18.46,375.64 -27.91,368.77 -16.22,368.77 	"/>
	<polygon fill="#EFEFEF" points="26.65,259.51 30.26,270.62 41.94,270.62 32.49,277.5 36.1,288.61 26.65,281.74 17.19,288.61 
		20.8,277.5 11.35,270.62 23.04,270.62 	"/>
	<polygon fill="#EFEFEF" points="26.65,298.77 30.26,309.88 41.94,309.88 32.49,316.75 36.1,327.86 26.65,321 17.19,327.86 
		20.8,316.75 11.35,309.88 23.04,309.88 	"/>
	<polygon fill="#EFEFEF" points="26.65,338.02 30.26,349.14 41.94,349.14 32.49,356.01 36.1,367.12 26.65,360.25 17.19,367.12 
		20.8,356.01 11.35,349.14 23.04,349.14 	"/>
	<path fill="#EFEFEF" d="M-42.42,367.12l-3.61-11.12l9.45-6.87h-11.68l-0.26-0.81c-1.28,3.97-2.44,7.98-3.51,12.05l0.17-0.12
		L-42.42,367.12z"/>
	<path fill="#EFEFEF" d="M-22.06,308.24l9.45-6.87l9.45,6.87l-3.61-11.12l9.45-6.87H-9l-3.61-11.11l-3.61,11.11h-4.31
		c-0.8,1.21-1.57,2.43-2.35,3.66l4.43,3.21L-22.06,308.24z"/>
	<path fill="#EFEFEF" d="M26.65,242.48l9.45,6.87l-3.61-11.11l9.45-6.87h-6.75c-5.73,4.29-11.26,8.82-16.58,13.61l-1.43,4.38
		L26.65,242.48z"/>
	<path fill="#EFEFEF" d="M56.45,229.72l9.45-6.87l9.45,6.87l-3.61-11.12l9.45-6.87H69.51l-0.49-1.5c-3.96,2.02-7.88,4.13-11.71,6.37
		l2.75,1.99L56.45,229.72z"/>
	<polygon fill="#EFEFEF" points="65.91,239.88 69.51,250.99 81.2,250.99 71.75,257.86 75.36,268.98 65.91,262.11 56.45,268.98 
		60.06,257.86 50.6,250.99 62.29,250.99 	"/>
	<polygon fill="#EFEFEF" points="65.91,279.14 69.51,290.25 81.2,290.25 71.75,297.12 75.36,308.24 65.91,301.37 56.45,308.24 
		60.06,297.12 50.6,290.25 62.29,290.25 	"/>
	<polygon fill="#EFEFEF" points="65.91,318.4 69.51,329.51 81.2,329.51 71.75,336.38 75.36,347.5 65.91,340.62 56.45,347.5 
		60.06,336.38 50.6,329.51 62.29,329.51 	"/>
	<polygon fill="#EFEFEF" points="65.91,357.65 69.51,368.77 81.2,368.77 71.75,375.64 75.36,386.76 65.91,379.88 56.45,386.76 
		60.06,375.64 50.6,368.77 62.29,368.77 	"/>
	<polygon fill="#EFEFEF" points="105.16,220.25 108.77,231.37 120.46,231.37 111.01,238.24 114.61,249.35 105.16,242.48 
		95.71,249.35 99.32,238.24 89.86,231.37 101.55,231.37 	"/>
	<polygon fill="#EFEFEF" points="105.16,259.51 108.77,270.62 120.46,270.62 111.01,277.5 114.61,288.61 105.16,281.74 
		95.71,288.61 99.32,277.5 89.86,270.62 101.55,270.62 	"/>
	<polygon fill="#EFEFEF" points="105.16,298.77 108.77,309.88 120.46,309.88 111.01,316.75 114.61,327.86 105.16,321 95.71,327.86 
		99.32,316.75 89.86,309.88 101.55,309.88 	"/>
	<polygon fill="#EFEFEF" points="105.16,338.02 108.77,349.14 120.46,349.14 111.01,356.01 114.61,367.12 105.16,360.25 
		95.71,367.12 99.32,356.01 89.86,349.14 101.55,349.14 	"/>
	<polygon fill="#EFEFEF" points="144.42,200.63 148.03,211.74 159.72,211.74 150.26,218.61 153.87,229.72 144.42,222.85 
		134.96,229.72 138.58,218.61 129.12,211.74 140.81,211.74 	"/>
	<polygon fill="#EFEFEF" points="144.42,239.88 148.03,250.99 159.72,250.99 150.26,257.86 153.87,268.98 144.42,262.11 
		134.96,268.98 138.58,257.86 129.12,250.99 140.81,250.99 	"/>
	<polygon fill="#EFEFEF" points="144.42,279.14 148.03,290.25 159.72,290.25 150.26,297.12 153.87,308.24 144.42,301.37 
		134.96,308.24 138.58,297.12 129.12,290.25 140.81,290.25 	"/>
	<polygon fill="#EFEFEF" points="144.42,318.4 148.03,329.51 159.72,329.51 150.26,336.38 153.87,347.5 144.42,340.62 134.96,347.5 
		138.58,336.38 129.12,329.51 140.81,329.51 	"/>
	<polygon fill="#EFEFEF" points="144.42,357.65 148.03,368.77 159.72,368.77 150.26,375.64 153.87,386.76 144.42,379.88 
		134.96,386.76 138.58,375.64 129.12,368.77 140.81,368.77 	"/>
</g>
</svg>
