<?xml version="1.0" encoding="utf-8"?>
<!-- Generator: Adobe Illustrator 19.0.0, SVG Export Plug-In . SVG Version: 6.00 Build 0)  -->
<svg version="1.1" id="Capa_1" xmlns="http://www.w3.org/2000/svg" xmlns:xlink="http://www.w3.org/1999/xlink" x="0px" y="0px"
	 viewBox="-298.61 420.28 99.21 99.21" enable-background="new -298.61 420.28 99.21 99.21" xml:space="preserve">
<path opacity="0.5" fill="#ADDDF8" d="M-207.52,518.39h-82.96c-3.88,0-7.02-3.14-7.02-7.02v-82.96c0-3.88,3.14-7.02,7.02-7.02h82.96
	c3.88,0,7.02,3.14,7.02,7.02v82.96C-200.5,515.25-203.64,518.39-207.52,518.39z"/>
<path fill="#ADDDF8" d="M-263.09,464.55h13.38l-13.64-13.64l-0.08,0.22c0.21,0.44,0.34,0.93,0.34,1.45V464.55z"/>
<g opacity="0.5">
	<path fill="#ADDDF8" d="M-221.57,458.52v6.44c0.45-0.26,0.95-0.41,1.47-0.41c2.11,0,3.82,2.39,3.82,5.34
		c0,2.95-1.71,5.34-3.82,5.34c-0.52,0-1.01-0.15-1.47-0.41v6.44c0,1.86-1.52,3.37-3.4,3.37c-1.43,0-2.66-0.88-3.15-2.13v4.7
		c0,1.86-1.52,3.37-3.4,3.37c-1.88,0-3.4-1.51-3.4-3.37v-11.96h-28.18v11.96c0,1.86-1.52,3.37-3.4,3.37c-1.88,0-3.4-1.51-3.4-3.37
		v-4.7c-0.5,1.25-1.72,2.13-3.15,2.13c-0.44,0-0.87-0.09-1.26-0.24l34,34h32.77c3.88,0,7.02-3.14,7.02-7.02V478.3l-21.63-21.63
		C-221.78,457.2-221.57,457.83-221.57,458.52z"/>
	
		<rect x="-233.15" y="454.11" transform="matrix(0.7071 0.7071 -0.7071 0.7071 256.8382 294.1514)" fill="#ADDDF8" width="13" height="6"/>
</g>
<path fill="#ADDDF8" d="M-278.84,475.06l2.41,2.41v-2.65c-0.45,0.26-0.95,0.41-1.47,0.41
	C-278.22,475.23-278.54,475.17-278.84,475.06z"/>
<path fill="#014871" d="M-220.1,464.55c-0.52,0-1.01,0.15-1.47,0.41v-6.44c0-0.69-0.21-1.32-0.57-1.86
	c-0.61-0.91-1.65-1.51-2.83-1.51c-1.43,0-2.66,0.88-3.15,2.13v-4.7c0-1.86-1.52-3.37-3.4-3.37c-1.88,0-3.4,1.51-3.4,3.37v11.96
	h-28.18v-11.96c0-0.52-0.13-1.01-0.34-1.45c-0.55-1.13-1.7-1.92-3.05-1.92c-1.88,0-3.4,1.51-3.4,3.37v4.7
	c-0.5-1.25-1.72-2.13-3.15-2.13c-1.88,0-3.4,1.51-3.4,3.37v6.44c-0.45-0.26-0.95-0.41-1.47-0.41c-2.11,0-3.82,2.39-3.82,5.34
	c0,2.49,1.23,4.58,2.88,5.17c0.3,0.11,0.62,0.17,0.94,0.17c0.52,0,1.01-0.15,1.47-0.41v6.44c0,1.42,0.89,2.63,2.14,3.12
	c0.39,0.15,0.81,0.24,1.26,0.24c1.43,0,2.65-0.88,3.15-2.13v4.7c0,1.86,1.52,3.37,3.4,3.37c1.88,0,3.4-1.51,3.4-3.37v-11.96h28.18
	v11.96c0,1.86,1.52,3.37,3.4,3.37c1.88,0,3.4-1.51,3.4-3.37v-4.7c0.5,1.25,1.72,2.13,3.15,2.13c1.88,0,3.4-1.51,3.4-3.37v-6.44
	c0.45,0.26,0.95,0.41,1.47,0.41c2.11,0,3.82-2.39,3.82-5.34C-216.28,466.94-217.99,464.55-220.1,464.55z"/>
</svg>
