<?xml version="1.0" encoding="utf-8"?>
<!-- Generator: Adobe Illustrator 19.0.0, SVG Export Plug-In . SVG Version: 6.00 Build 0)  -->
<svg version="1.1" id="Capa_1" xmlns="http://www.w3.org/2000/svg" xmlns:xlink="http://www.w3.org/1999/xlink" x="0px" y="0px"
	 viewBox="-298.61 420.28 99.21 99.21" enable-background="new -298.61 420.28 99.21 99.21" xml:space="preserve">
<path opacity="0.5" fill="#ADDDF8" d="M-207.52,518.39h-82.96c-3.88,0-7.02-3.14-7.02-7.02v-82.96c0-3.88,3.14-7.02,7.02-7.02h82.96
	c3.88,0,7.02,3.14,7.02,7.02v82.96C-200.5,515.25-203.64,518.39-207.52,518.39z"/>
<g opacity="0.5">
	<path fill="#ADDDF8" d="M-281.02,494.53l23.86,23.86h49.64c3.88,0,7.02-3.14,7.02-7.02v-45.22l-19.55-19.55L-281.02,494.53z"/>
</g>
<g id="XMLID_6_">
	<g>
		<polygon fill="#F8F1A1" points="-245.54,489.43 -244.03,491.82 -253.97,491.82 -252.48,489.43 		"/>
		<polygon fill="#F8F1A1" points="-221.81,486.39 -220.45,488.79 -245.54,488.79 -277.77,488.79 -276.59,486.39 		"/>
		<path fill="#FFFFFF" d="M-260.27,462.29c6.85-6.85,17.98-6.85,24.83,0c0.4,0.4,0.92,0.6,1.45,0.6c0.52,0,1.05-0.2,1.46-0.6
			c0.8-0.81,0.8-2.11,0-2.9c-8.45-8.45-22.18-8.45-30.63,0c-0.8,0.8-0.8,2.1,0,2.9C-262.36,463.08-261.06,463.08-260.27,462.29z
			 M-240.46,467.3c-4.07-4.07-10.71-4.07-14.78,0c-0.81,0.81-0.81,2.11,0,2.9c0.8,0.81,2.1,0.81,2.9,0c2.47-2.47,6.51-2.47,8.98,0
			c0.4,0.41,0.92,0.6,1.45,0.6c0.53,0,1.06-0.19,1.46-0.6C-239.65,469.41-239.65,468.11-240.46,467.3z M-256.3,466.24
			c4.66-4.66,12.24-4.66,16.9,0c0.41,0.4,0.93,0.6,1.46,0.6c0.52,0,1.05-0.2,1.45-0.6c0.81-0.81,0.81-2.1,0-2.9
			c-6.26-6.26-16.44-6.26-22.7,0c-0.81,0.81-0.81,2.1,0,2.9C-258.4,467.05-257.1,467.05-256.3,466.24z M-222.9,447.76v36.5h-52.49
			v-36.5H-222.9z M-245.57,476.98c1.26-1.26,1.26-3.31,0-4.57c-0.6-0.61-1.42-0.95-2.28-0.95c-0.86,0-1.68,0.34-2.29,0.95
			c-0.6,0.61-0.94,1.42-0.94,2.28c0,0.86,0.34,1.68,0.94,2.29C-248.92,478.2-246.78,478.2-245.57,476.98z"/>
		<polygon fill="#014871" points="-217.03,492.08 -217.03,494.48 -253.97,494.48 -253.97,491.82 -244.03,491.82 -245.54,489.43 
			-245.54,488.79 -220.45,488.79 -219.27,488.13 		"/>
		<path fill="#E94B40" d="M-232.53,459.39c0.8,0.8,0.8,2.1,0,2.9c-0.41,0.4-0.93,0.6-1.46,0.6c-0.52,0-1.05-0.2-1.45-0.6
			c-6.85-6.85-17.98-6.85-24.83,0c-0.8,0.8-2.1,0.8-2.9,0c-0.8-0.81-0.8-2.11,0-2.9C-254.72,450.94-240.98,450.94-232.53,459.39z"/>
		<path fill="#E94B40" d="M-236.5,463.34c0.81,0.81,0.81,2.1,0,2.9c-0.4,0.4-0.92,0.6-1.45,0.6c-0.52,0-1.05-0.2-1.46-0.6
			c-4.66-4.66-12.24-4.66-16.9,0c-0.8,0.81-2.1,0.81-2.9,0c-0.81-0.81-0.81-2.1,0-2.9C-252.94,457.09-242.76,457.09-236.5,463.34z"
			/>
		<path fill="#E94B40" d="M-240.46,467.3c0.81,0.81,0.81,2.11,0,2.9c-0.4,0.41-0.92,0.6-1.46,0.6c-0.52,0-1.05-0.19-1.45-0.6
			c-2.47-2.47-6.51-2.47-8.98,0c-0.81,0.81-2.1,0.81-2.9,0c-0.81-0.8-0.81-2.1,0-2.9C-251.17,463.23-244.53,463.23-240.46,467.3z"/>
		<path fill="#E94B40" d="M-245.57,472.41c1.26,1.26,1.26,3.31,0,4.57c-1.21,1.22-3.35,1.22-4.57,0c-0.6-0.61-0.94-1.43-0.94-2.29
			c0-0.86,0.34-1.67,0.94-2.28c0.61-0.61,1.43-0.95,2.29-0.95C-246.99,471.46-246.17,471.8-245.57,472.41z"/>
		<path fill="#014871" d="M-222.9,484.27v-36.5h-52.49v36.5H-222.9z M-220.45,446.53v38.96c0,0.15-0.03,0.28-0.08,0.42l1.25,2.21
			l-1.17,0.66l-1.36-2.4h-54.79l-1.23-0.65c-0.02-0.08-0.03-0.17-0.03-0.24v-38.96c0-0.68,0.55-1.23,1.23-1.23h54.95
			C-220.99,445.3-220.45,445.85-220.45,446.53z"/>
		<polygon fill="#014871" points="-252.48,489.43 -253.97,491.82 -253.97,494.48 -280.97,494.48 -280.97,492.08 -277.82,485.74 
			-276.59,486.39 -277.77,488.79 -245.54,488.79 -245.54,489.43 		"/>
	</g>
</g>
</svg>
