<?xml version="1.0" encoding="utf-8"?>
<!-- Generator: Adobe Illustrator 16.0.0, SVG Export Plug-In . SVG Version: 6.00 Build 0)  -->
<!DOCTYPE svg PUBLIC "-//W3C//DTD SVG 1.1//EN" "http://www.w3.org/Graphics/SVG/1.1/DTD/svg11.dtd">
<svg version="1.1" id="Capa_1" xmlns="http://www.w3.org/2000/svg" xmlns:xlink="http://www.w3.org/1999/xlink" x="0px" y="0px"
	 width="333px" height="204px" viewBox="130.89 328.19 333 204" enable-background="new 130.89 328.19 333 204"
	 xml:space="preserve">
<g>
	<g>
		<g>
			<path fill="#353535" d="M271.33,504.31l0.04,2.04h-0.28c-0.39-1.22-1.08-1.83-2.07-1.83c-0.54,0-0.97,0.15-1.27,0.45
				c-0.3,0.3-0.46,0.62-0.46,0.94c0,0.3,0.13,0.56,0.38,0.77c0.25,0.21,0.71,0.38,1.38,0.49c0.67,0.11,1.17,0.25,1.52,0.42
				c0.35,0.17,0.64,0.44,0.88,0.83s0.36,0.83,0.36,1.33c0,0.77-0.25,1.41-0.75,1.92c-0.5,0.51-1.12,0.77-1.86,0.77
				c-0.6,0-1.21-0.22-1.81-0.67l-0.55,0.49h-0.21v-2.19h0.25c0.23,0.69,0.55,1.21,0.96,1.55c0.41,0.35,0.87,0.52,1.36,0.52
				c0.49,0,0.93-0.16,1.34-0.48c0.41-0.32,0.61-0.73,0.61-1.22c0-0.41-0.14-0.76-0.42-1.04s-0.74-0.48-1.38-0.58
				c-0.63-0.11-1.12-0.23-1.46-0.38c-0.34-0.14-0.63-0.39-0.87-0.74c-0.24-0.35-0.36-0.74-0.36-1.17c0-0.59,0.21-1.12,0.63-1.59
				c0.42-0.47,0.99-0.7,1.71-0.7c0.61,0,1.17,0.19,1.69,0.57c0.14-0.14,0.27-0.3,0.37-0.48H271.33L271.33,504.31z"/>
		</g>
		<g>
			<path fill="#353535" d="M274.29,511.94v-7.25H273v-0.29h3.97v0.29h-1.29v7.25h1.29v0.3H273v-0.3H274.29z"/>
		</g>
		<g>
			<path fill="#353535" d="M285,504.69v7.73h-0.24l-5.17-7.76h-0.03v7.28h1.33v0.3h-2.79v-0.3h1.16v-7.25h-1.25v-0.29h2.99l3.66,5.5
				h0.02v-5.2h-1.3v-0.29h2.79v0.29H285L285,504.69z"/>
		</g>
		<g>
			<path fill="#353535" d="M292.99,504.31v2.33h-0.25c-0.27-1.42-0.98-2.13-2.12-2.13c-0.61,0-1.06,0.24-1.34,0.72
				s-0.42,1.49-0.42,3.03c0,1.27,0.06,2.13,0.18,2.59c0.12,0.46,0.33,0.78,0.63,0.98c0.3,0.2,0.63,0.29,0.99,0.29
				c0.47,0,0.91-0.18,1.32-0.53s0.73-0.92,0.96-1.7h0.28l-0.1,2.39h-0.24c-0.09-0.25-0.23-0.46-0.42-0.63
				c-0.62,0.51-1.25,0.77-1.9,0.77c-0.83,0-1.58-0.39-2.26-1.18c-0.68-0.78-1.02-1.74-1.02-2.88c0-1.16,0.33-2.14,1.01-2.95
				c0.67-0.8,1.45-1.21,2.33-1.21c0.68,0,1.28,0.24,1.8,0.73c0.15-0.24,0.27-0.46,0.35-0.64L292.99,504.31L292.99,504.31z"/>
		</g>
		<g>
			<path fill="#353535" d="M297.05,504.69v3.36h0.71c0.25,0,0.46-0.02,0.63-0.07c0.17-0.05,0.33-0.18,0.47-0.39
				c0.14-0.21,0.22-0.55,0.24-1.01h0.3v3.32h-0.3c-0.03-0.63-0.15-1.05-0.37-1.25c-0.21-0.2-0.54-0.3-0.97-0.3h-0.71v3.58h1.6
				c0.91,0,1.53-0.19,1.88-0.57c0.35-0.38,0.56-0.97,0.62-1.76h0.3l-0.08,2.63h-6.96v-0.3h1.25v-7.25h-1.25v-0.3h6.67l0.13,2.09
				h-0.3c-0.1-0.63-0.31-1.09-0.63-1.38c-0.32-0.28-0.84-0.42-1.58-0.42H297.05L297.05,504.69z"/>
		</g>
		<g>
			<path fill="#353535" d="M308.56,504.54v7.4h1.35v0.3h-3.81v-0.3h1.35v-6.87h-1.35v-0.3h0.2
				C307.16,504.78,307.91,504.7,308.56,504.54z"/>
		</g>
		<g>
			<path fill="#353535" d="M312,512.66v-0.24c1.7-0.28,2.68-1.39,2.96-3.32l-0.02-0.02c-0.37,0.42-0.8,0.63-1.3,0.63
				c-0.56,0-1.06-0.25-1.51-0.74c-0.45-0.49-0.68-1.07-0.68-1.73c0-0.7,0.22-1.32,0.66-1.87c0.44-0.54,1.01-0.81,1.69-0.81
				c0.73,0,1.33,0.3,1.81,0.9c0.47,0.6,0.71,1.38,0.71,2.35c0,1.24-0.41,2.31-1.23,3.23C314.26,511.94,313.23,512.48,312,512.66z
				 M315.01,508.63l0.06-1.96c0-1.24-0.41-1.86-1.22-1.86c-0.41,0-0.71,0.16-0.89,0.49c-0.18,0.33-0.28,1.11-0.28,2.34
				c0,1.17,0.34,1.76,1.02,1.76C314.18,509.4,314.62,509.14,315.01,508.63z"/>
		</g>
		<g>
			<path fill="#353535" d="M320.31,508.32v0.02c0.64,0.15,1.12,0.4,1.44,0.75s0.47,0.75,0.47,1.21c0,0.57-0.23,1.07-0.67,1.48
				c-0.45,0.42-1.04,0.63-1.8,0.63c-0.74,0-1.33-0.2-1.78-0.6c-0.45-0.4-0.68-0.89-0.68-1.46c0-0.53,0.19-0.97,0.56-1.33
				c0.37-0.36,0.85-0.58,1.44-0.67v-0.02c-0.6-0.12-1.04-0.34-1.34-0.7c-0.3-0.35-0.45-0.74-0.45-1.16c0-0.52,0.22-0.97,0.65-1.35
				c0.43-0.38,0.97-0.57,1.6-0.57c0.69,0,1.24,0.19,1.66,0.58c0.42,0.38,0.63,0.83,0.63,1.34c0,0.39-0.14,0.76-0.44,1.12
				C321.31,507.95,320.88,508.2,320.31,508.32z M319.73,512.12c0.43,0,0.74-0.12,0.94-0.37c0.2-0.24,0.3-0.69,0.3-1.35
				c0-1.26-0.41-1.89-1.22-1.89c-0.38,0-0.68,0.14-0.89,0.42c-0.21,0.28-0.32,0.8-0.32,1.55c0,0.61,0.09,1.03,0.28,1.27
				C319,512,319.31,512.12,319.73,512.12z M319.78,508.19c0.33,0,0.6-0.13,0.78-0.38c0.18-0.25,0.28-0.72,0.28-1.39
				c0-0.62-0.09-1.03-0.27-1.25c-0.18-0.22-0.45-0.33-0.8-0.33c-0.34,0-0.6,0.11-0.79,0.33c-0.19,0.22-0.28,0.73-0.28,1.54
				C318.69,507.7,319.06,508.19,319.78,508.19z"/>
		</g>
		<g>
			<path fill="#353535" d="M326.86,504.54v5.32h0.98v-0.86h0.29v2.1h-0.29v-0.93h-0.98v1.78h0.88v0.3h-3.01v-0.3h0.99v-1.78h-2.75
				v-0.3c1.32-2.45,2.43-4.22,3.33-5.32H326.86L326.86,504.54z M325.73,509.85v-4.05h-0.02c-0.67,0.99-1.46,2.34-2.39,4.05H325.73z"
				/>
		</g>
	</g>
	<g>
		<path fill="#353535" d="M304.01,525.95c-0.08,0.14-0.17,0.26-0.26,0.37c-0.59,0.6-1.14,0.99-1.67,1.19l-0.44,0.16
			c-0.17,0.06-0.5,0.1-1,0.1c-0.42-0.02-0.92-0.09-1.51-0.23c-0.6-0.13-1.92-0.67-3.97-1.62c-2.05-0.95-3.59-1.24-4.62-0.86
			c1.03-0.71,2.68-0.54,4.94,0.5c2.26,1.05,3.62,1.61,4.07,1.67c0.99,0.28,1.87,0.28,2.62,0l0.33-0.12
			c0.19-0.07,0.44-0.23,0.76-0.48c0.24-0.2,0.45-0.43,0.61-0.69c-0.69,0.04-1.44-0.03-2.25-0.22c-0.15,0-2.14-0.68-5.96-2.05
			c-2.8-1.11-4.54-1.5-5.22-1.18c-0.68,0.32-1.13,0.79-1.35,1.4c-0.22,0.61-0.18,1.21,0.13,1.79s0.92,1,1.84,1.24
			c-1.07,0.07-1.82-0.25-2.26-0.98c-0.43-0.73-0.5-1.48-0.21-2.25c0.29-0.77,0.84-1.3,1.63-1.59c0.79-0.29,1.64-0.25,2.55,0.11
			c0.92,0.36,2.02,0.74,3.31,1.13l4.59,1.6c0.87,0.28,1.63,0.46,2.28,0.53c0.41,0.04,0.79,0.06,1.15,0.05
			c0.07-0.16,0.15-0.41,0.24-0.76c0.09-0.73-0.02-1.41-0.31-2.02l-0.23-0.38c-0.22-0.34-0.5-0.62-0.85-0.86
			c-0.13-0.15-0.49-0.32-1.09-0.53c-0.67-0.16-1.32-0.16-1.98,0.01l-0.27,0.11c-0.59,0.22-1.05,0.52-1.39,0.89l-0.02,0.01
			c0.33-0.61,0.81-1.04,1.45-1.27l0.11-0.04c0.77-0.29,1.56-0.31,2.35-0.06c0.96,0.38,1.69,1.08,2.17,2.1
			c0.32,0.66,0.38,1.43,0.16,2.31c-0.07,0.18-0.15,0.34-0.22,0.48c0.83-0.03,1.53-0.18,2.1-0.46l0.02-0.01l0.01,0.03l-0.64,0.39
			C305.21,525.74,304.64,525.89,304.01,525.95z"/>
	</g>
	<g>
		<path fill="#353535" d="M279.19,415.74v-47.81h-8.14v-1.97h28.36c3.71,0,6.75,0.32,9.12,0.96c2.38,0.64,4.43,1.97,6.16,3.99
			c1.72,2.02,2.58,4.34,2.58,6.96c0,3.27-1.26,5.92-3.78,7.95c-2.52,2.03-6.79,3.56-12.81,4.59v0.19c4.32,0.85,7.87,2.5,10.63,4.94
			c2.77,2.44,4.15,6.58,4.15,12.42c0,3.34,0.39,5.49,1.18,6.42c0.79,0.94,1.87,1.41,3.26,1.41c0.9,0,1.98-0.18,3.24-0.54v1.89
			c-2.24,0.77-4.4,1.16-6.48,1.16c-4.24,0-7.24-1.18-8.99-3.55c-1.75-2.37-2.6-4.68-2.55-6.95l0.15-6.56c0-2.29-0.73-4.55-2.18-6.77
			c-1.45-2.23-4.75-3.34-9.9-3.34h-4.82v24.58h8.14v1.97h-25.47v-1.97L279.19,415.74L279.19,415.74z M288.37,367.94v21.42h6.95
			c2.98,0,5.26-0.2,6.83-0.6c1.57-0.4,2.82-1.44,3.76-3.13c0.94-1.69,1.41-4.37,1.41-8.05c0-3.01-0.48-5.21-1.43-6.6
			c-0.95-1.39-2.1-2.24-3.45-2.57c-1.35-0.32-3.12-0.48-5.31-0.48H288.37L288.37,367.94z"/>
		<g>
			<g>
				<path fill="#353535" d="M132.54,445.37c13.12-0.22,26.23-0.31,39.35-0.47l39.35-0.27c26.23-0.16,52.47-0.14,78.7-0.22
					c26.24,0.08,52.47,0.07,78.7,0.22l39.35,0.27c13.12,0.16,40.53,0.25,53.65,0.47c-13.12,0.22-40.54,0.31-53.65,0.47l-39.35,0.27
					c-26.23,0.15-52.47,0.15-78.7,0.22c-26.23-0.08-52.47-0.06-78.7-0.22l-39.35-0.27C158.77,445.68,145.66,445.58,132.54,445.37z"
					/>
			</g>
			<g>
				<path fill="#353535" d="M132.54,492.47c13.12-0.22,26.23-0.31,39.35-0.47l39.35-0.27c26.23-0.16,52.47-0.14,78.7-0.22
					c26.24,0.07,52.47,0.07,78.7,0.22l39.35,0.27c13.12,0.16,40.53,0.25,53.65,0.47c-13.12,0.22-40.54,0.31-53.65,0.47l-39.35,0.27
					c-26.23,0.15-52.47,0.15-78.7,0.22c-26.23-0.08-52.47-0.06-78.7-0.22l-39.35-0.27C158.77,492.78,145.66,492.69,132.54,492.47z"
					/>
			</g>
			<path fill="#353535" d="M156.57,481.77v-26.13h-4.45v-1.08h15.5c2.02,0,3.69,0.18,4.99,0.53c1.3,0.35,2.42,1.08,3.37,2.18
				c0.94,1.1,1.41,2.37,1.41,3.81c0,1.79-0.69,3.23-2.07,4.35c-1.38,1.11-3.71,1.95-7,2.51v0.11c2.36,0.46,4.3,1.36,5.81,2.7
				s2.27,3.6,2.27,6.79c0,1.83,0.21,3,0.64,3.51c0.43,0.51,1.02,0.77,1.78,0.77c0.49,0,1.08-0.1,1.77-0.29v1.03
				c-1.22,0.42-2.41,0.63-3.54,0.63c-2.32,0-3.96-0.65-4.92-1.94c-0.96-1.29-1.42-2.56-1.39-3.8l0.08-3.59c0-1.25-0.4-2.48-1.19-3.7
				c-0.79-1.22-2.6-1.82-5.41-1.82h-2.64v13.44h4.45v1.08h-13.92v-1.08L156.57,481.77L156.57,481.77z M161.59,455.64v11.71h3.8
				c1.63,0,2.88-0.11,3.73-0.33c0.86-0.22,1.54-0.79,2.06-1.71c0.51-0.92,0.77-2.39,0.77-4.4c0-1.65-0.26-2.85-0.78-3.61
				s-1.15-1.23-1.89-1.4c-0.74-0.17-1.7-0.26-2.9-0.26H161.59L161.59,455.64z"/>
			<path fill="#353535" d="M195.44,483.5c-3.66,0-6.76-1.53-9.31-4.6c-2.55-3.06-3.83-6.34-3.83-9.83c0-4.19,1.34-7.77,4.02-10.73
				c2.68-2.96,5.79-4.44,9.33-4.44c3.33,0,6.32,1.51,8.97,4.52c2.64,3.01,3.97,6.43,3.97,10.25c0,3.94-1.33,7.39-3.98,10.37
				C201.96,482.01,198.9,483.5,195.44,483.5z M195.52,454.98c-1.55,0-2.94,0.36-4.17,1.06c-1.23,0.71-2.07,1.94-2.51,3.7
				c-0.44,1.76-0.66,4.82-0.66,9.2c0,3.02,0.13,5.44,0.38,7.23c0.25,1.8,0.9,3.29,1.93,4.47c1.03,1.18,2.65,1.77,4.86,1.77
				c1.35,0,2.7-0.36,4.06-1.08c1.36-0.72,2.24-2.13,2.66-4.23c0.42-2.1,0.62-5.33,0.62-9.69c0-3.95-0.26-6.68-0.77-8.19
				c-0.51-1.51-1.34-2.59-2.47-3.26S197.02,454.98,195.52,454.98z"/>
			<path fill="#353535" d="M224.95,483.5c-3.66,0-6.76-1.53-9.31-4.6c-2.55-3.06-3.83-6.34-3.83-9.83c0-4.19,1.34-7.77,4.02-10.73
				c2.68-2.96,5.79-4.44,9.33-4.44c3.33,0,6.32,1.51,8.96,4.52c2.64,3.01,3.97,6.43,3.97,10.25c0,3.94-1.33,7.39-3.98,10.37
				C231.46,482.01,228.41,483.5,224.95,483.5z M225.03,454.98c-1.55,0-2.94,0.36-4.17,1.06c-1.23,0.71-2.07,1.94-2.51,3.7
				c-0.44,1.76-0.67,4.82-0.67,9.2c0,3.02,0.13,5.44,0.38,7.23c0.25,1.8,0.9,3.29,1.93,4.47s2.65,1.77,4.86,1.77
				c1.35,0,2.7-0.36,4.06-1.08s2.24-2.13,2.66-4.23c0.42-2.1,0.62-5.33,0.62-9.69c0-3.95-0.26-6.68-0.77-8.19
				c-0.51-1.51-1.34-2.59-2.47-3.26C227.83,455.32,226.52,454.98,225.03,454.98z"/>
			<path fill="#353535" d="M241.06,454.56h10.15l6.05,20h0.08l6.1-20h9.89v1.08h-4.2v26.13h4.2v1.08h-13.31v-1.08h4.32v-26.62h-0.08
				l-8.42,27.7h-0.97l-8.42-27.7h-0.08v26.62h4.32v1.08h-9.64v-1.08h4.24v-26.13h-4.24L241.06,454.56L241.06,454.56z"/>
			<path fill="#353535" d="M295.62,469.9v11.88h4.58v1.08h-14.09v-1.08h4.49v-26.13h-4.49v-1.08h14.58c3.29,0,5.77,0.73,7.44,2.19
				c1.67,1.46,2.5,3.26,2.5,5.4c0,2.19-0.84,4.03-2.52,5.52c-1.68,1.48-4.48,2.22-8.38,2.22H295.62z M295.62,455.64v13.16h2.72
				c1.42,0,2.6-0.12,3.54-0.36c0.94-0.24,1.75-0.87,2.44-1.9c0.68-1.03,1.02-2.62,1.02-4.77c0-1.9-0.3-3.29-0.9-4.19
				c-0.6-0.89-1.31-1.44-2.12-1.65c-0.82-0.21-1.83-0.31-3.04-0.31L295.62,455.64L295.62,455.64z"/>
			<path fill="#353535" d="M323.77,474.03h-8.99l-2.89,7.74h5.23v1.08h-10.25v-1.08h3.9l10.32-27.87h0.65l9.89,27.87h3.8v1.08
				h-13.48v-1.08h4.58L323.77,474.03z M315.19,472.95h8.21l-3.99-11.33h-0.08L315.19,472.95z"/>
			<path fill="#353535" d="M346.76,455.64v26.13h6.35c1.22,0,2.19-0.09,2.89-0.28c0.7-0.18,1.4-0.63,2.08-1.33
				c0.68-0.7,1.21-1.54,1.58-2.51c0.37-0.97,0.77-2.32,1.19-4.05h0.99l-0.78,9.24h-23.77v-1.08h4.45v-26.13h-4.45v-1.08h14.17v1.08
				H346.76z"/>
			<path fill="#353535" d="M380.11,474.03h-8.99l-2.89,7.74h5.23v1.08h-10.25v-1.08h3.9l10.31-27.87h0.65l9.89,27.87h3.8v1.08
				h-13.48v-1.08h4.58L380.11,474.03z M371.52,472.95h8.21l-3.99-11.33h-0.08L371.52,472.95z"/>
			<path fill="#353535" d="M413.58,454.24v8.4h-0.91c-0.98-5.11-3.53-7.66-7.64-7.66c-2.21,0-3.82,0.87-4.83,2.6
				c-1.01,1.73-1.52,5.37-1.52,10.93c0,4.57,0.22,7.68,0.65,9.32c0.43,1.64,1.19,2.82,2.27,3.53c1.08,0.71,2.26,1.06,3.56,1.06
				c1.69,0,3.27-0.64,4.76-1.91c1.48-1.27,2.63-3.32,3.45-6.13h0.99l-0.34,8.63h-0.87c-0.32-0.9-0.83-1.66-1.52-2.28
				c-2.22,1.84-4.51,2.76-6.86,2.76c-2.98,0-5.7-1.41-8.16-4.24c-2.46-2.83-3.69-6.29-3.69-10.38c0-4.18,1.21-7.72,3.63-10.62
				s5.22-4.36,8.4-4.36c2.45,0,4.61,0.88,6.48,2.64c0.55-0.87,0.96-1.64,1.25-2.3L413.58,454.24L413.58,454.24z"/>
			<path fill="#353535" d="M427.12,455.64v12.13h2.55c0.9,0,1.66-0.09,2.29-0.26c0.63-0.18,1.19-0.65,1.69-1.43
				c0.5-0.77,0.78-1.98,0.85-3.63h1.1v11.98h-1.1c-0.11-2.28-0.55-3.78-1.32-4.5c-0.77-0.72-1.94-1.09-3.51-1.09h-2.55v12.93h5.76
				c3.26,0,5.52-0.69,6.78-2.06c1.26-1.37,2.01-3.48,2.25-6.34h1.08l-0.27,9.47h-25.08v-1.08h4.49v-26.13h-4.49v-1.08h24.05
				l0.48,7.55h-1.08c-0.37-2.29-1.12-3.94-2.26-4.96c-1.14-1.01-3.04-1.52-5.69-1.52H427.12z"/>
		</g>
		<g>
			<path fill="#353535" d="M453.23,419.88c-11.91,10.91-25.62,10.63-40.29,6.9c-4.88-1.24-12.32-4.01-20.57-6.48
				c-15.04-4.52-26-1.22-30.85,0.9c-8.81,4.47-12.38,10.98-13.35,12.16c1.28-1.66,6.97-13.07,24.26-16.35
				c9.41-1.51,20.73,0.51,32.66,3.82c11.77,3.06,25.46,8.66,38.95,2.86c6.5-2.6,12.25-7.05,15.21-12.95
				c3.12-5.89,1.98-12.92-1.86-17.65c-3.36-5.06-9.36-7.91-14.59-6.49c-5.18,1.25-9.09,5.79-9.16,10.35
				c0.02,0.99,0.18,1.95,0.41,2.87c0.76,1.84,2.4,4.33,5.82,4.97c5.61,1.04,2.26-3.56,3.32-6.7c1.07-3.13,3.06-4.64,0.27-7.05
				c0,0,10.35,1.64,7.22,10.99c0,0-1.19,1.89-0.06,2.99c1.13,1.1,2.57-0.89,2.57-0.89s-2.15,8.35-11.77,6.13
				c-9.21-2.13-12.08-15.58-4.32-21.62c1.53-1.34,3.4-2.37,5.49-2.9c5.62-1.62,12.17,1.46,15.7,6.7c4.09,4.86,5.41,12.58,2.09,18.86
				C458.71,414.65,456.21,417.51,453.23,419.88"/>
			<path fill="#353535" d="M355.59,410.16c0,0-2.47,5.9,2.97,5.41c5.43-0.5,17.08-15.8,30.8-11.51c13.71,4.3,18.2,4,22.23,0.28
				c0,0-5.1,10.15-15.12,7.65c-10.02-2.52-33.99-3.44-48.85,18.68C347.61,430.66,346.85,416.87,355.59,410.16"/>
			<path fill="#353535" d="M434.47,420.99c-7.03,5.13-14.6,1.59-21.85-1.75c-9.48-4.37-18.65-3.59-18.65-3.59s9.64-2.81,20.21,0.55
				c10.57,3.35,19.71-1.47,20.75-6.96C434.93,409.24,441.49,415.85,434.47,420.99"/>
			<path fill="#353535" d="M443.73,433.04c0.7,1.56,0.83,3.33-3.76,4.76c-3.04,0.95-6.78,0.7-9.97,0.24
				c-4.92-0.71-9.31-1.58-9.31-1.58s-5.05-0.31-2.3,4.85c0,0-3.5-0.84-5.95-4.47c-2.44-3.63-10.33-9.69-12.81-6.26
				c-2.49,3.43,2.02,4.54-1.91,8.78c0,0-9.98-15.5-22.66-16.33c-11.89-0.77-18.75,5.03-18.75,5.03s10.14-12.55,34.57-5.47
				c24.43,7.06,26.94,12.22,38.4,11.14c0,0,7.43-0.54,10.77-1.58C441.39,431.72,443.22,431.92,443.73,433.04"/>
		</g>
		<g>
			<path fill="#353535" d="M142.14,419.88c11.91,10.91,25.62,10.63,40.29,6.9c4.88-1.24,12.32-4.01,20.58-6.48
				c15.04-4.52,26-1.22,30.85,0.9c8.81,4.47,12.38,10.98,13.35,12.16c-1.28-1.66-6.97-13.07-24.26-16.35
				c-9.41-1.51-20.73,0.51-32.66,3.82c-11.77,3.06-25.46,8.66-38.95,2.86c-6.5-2.6-12.25-7.05-15.21-12.95
				c-3.12-5.89-1.98-12.92,1.85-17.65c3.36-5.06,9.36-7.91,14.6-6.49c5.18,1.25,9.09,5.79,9.16,10.35
				c-0.02,0.99-0.18,1.95-0.41,2.87c-0.76,1.84-2.4,4.33-5.82,4.97c-5.6,1.04-2.26-3.56-3.32-6.7c-1.07-3.13-3.06-4.64-0.27-7.05
				c0,0-10.35,1.64-7.22,10.99c0,0,1.19,1.89,0.05,2.99c-1.13,1.1-2.57-0.89-2.57-0.89s2.15,8.35,11.77,6.13
				c9.21-2.13,12.08-15.58,4.32-21.62c-1.53-1.34-3.41-2.37-5.49-2.9c-5.62-1.62-12.17,1.46-15.7,6.7
				c-4.08,4.86-5.41,12.58-2.09,18.86C136.67,414.65,139.16,417.51,142.14,419.88"/>
			<path fill="#353535" d="M239.79,410.16c0,0,2.47,5.9-2.97,5.41c-5.43-0.5-17.08-15.8-30.8-11.51c-13.71,4.3-18.2,4-22.23,0.28
				c0,0,5.1,10.15,15.12,7.65c10.02-2.52,33.99-3.44,48.85,18.68C247.77,430.66,248.53,416.87,239.79,410.16"/>
			<path fill="#353535" d="M160.91,420.99c7.03,5.13,14.59,1.59,21.85-1.75c9.48-4.37,18.65-3.59,18.65-3.59s-9.64-2.81-20.21,0.55
				c-10.57,3.35-19.71-1.47-20.75-6.96C160.45,409.24,153.88,415.85,160.91,420.99"/>
			<path fill="#353535" d="M151.65,433.04c-0.7,1.56-0.83,3.33,3.76,4.76c3.04,0.95,6.78,0.7,9.97,0.24
				c4.92-0.71,9.31-1.58,9.31-1.58s5.05-0.31,2.3,4.85c0,0,3.5-0.84,5.95-4.47c2.44-3.63,10.33-9.69,12.81-6.26
				c2.49,3.43-2.02,4.54,1.91,8.78c0,0,9.98-15.5,22.66-16.33c11.89-0.77,18.75,5.03,18.75,5.03s-10.14-12.55-34.57-5.47
				c-24.43,7.06-26.94,12.22-38.4,11.14c0,0-7.43-0.54-10.77-1.58C153.98,431.72,152.15,431.92,151.65,433.04"/>
		</g>
		<circle fill="none" stroke="#353535" stroke-width="3.6" stroke-miterlimit="10" cx="297.09" cy="389.35" r="47.38"/>
		<path fill="none" stroke="#353535" stroke-width="3.5685" stroke-linecap="round" stroke-miterlimit="10" d="M240.84,399.06
			c-5.89-90.53,121.65-86.72,113.35,0.25"/>
	</g>
	<path fill="#353535" d="M220.34,440.31c8.99-5.55,14.97-13.71,26.67-6.82c-3.94-3.34-7.42-3.65-9.84-3.71
		c-8.19-0.26-14.37,9.9-19.71,7.22c2.6-2.8-0.48-5.16-2.86-4.88c-2.59,0.33-4.24,3.28-3.41,5.83
		C212.51,442.06,217.93,441.8,220.34,440.31z"/>
	<path fill="#353535" d="M374.76,441.07c-8.99-5.55-14.97-13.72-26.67-6.82c3.94-3.34,7.42-3.66,9.84-3.71
		c8.19-0.26,14.37,9.9,19.71,7.22c-2.6-2.81,0.48-5.16,2.86-4.88c2.59,0.32,4.24,3.28,3.41,5.83
		C382.59,442.82,377.16,442.56,374.76,441.07z"/>
</g>
</svg>
