<?xml version="1.0" encoding="utf-8"?>
<!-- Generator: Adobe Illustrator 19.0.0, SVG Export Plug-In . SVG Version: 6.00 Build 0)  -->
<svg version="1.1" id="Capa_1" xmlns="http://www.w3.org/2000/svg" xmlns:xlink="http://www.w3.org/1999/xlink" x="0px" y="0px"
	 viewBox="-298.61 420.28 99.21 99.21" enable-background="new -298.61 420.28 99.21 99.21" xml:space="preserve">
<path opacity="0.5" fill="#ADDDF8" d="M-207.52,518.39h-82.96c-3.88,0-7.02-3.14-7.02-7.02v-82.96c0-3.88,3.14-7.02,7.02-7.02h82.96
	c3.88,0,7.02,3.14,7.02,7.02v82.96C-200.5,515.25-203.64,518.39-207.52,518.39z"/>
<g opacity="0.5">
	<path fill="#ADDDF8" d="M-233.22,449.33l-7.38-7.38c0.47,0.91,0.75,1.95,0.75,3.04c0,0.74-0.6,1.34-1.34,1.34
		c-0.74,0-1.34-0.6-1.34-1.34c0-2.17-1.75-3.93-3.92-3.95c-2.16,0.02-3.92,1.78-3.92,3.95v6.13h17.15V449.33z"/>
	<rect x="-250.38" y="453.81" fill="#ADDDF8" width="17.15" height="6.74"/>
	<path fill="#ADDDF8" d="M-220.02,444.99c0,0.74-0.6,1.34-1.34,1.34c-0.74,0-1.34-0.6-1.34-1.34c0-2.17-1.75-3.93-3.92-3.95
		c-2.16,0.02-3.92,1.78-3.92,3.95v27.62c1.05,0.4,2.34,0.7,4.09,0.7c3.18,0,4.84-0.96,6.31-1.81c1.35-0.78,2.51-1.45,4.97-1.45l0,0
		v31.37h-67.66l16.6,16.97h58.71c3.88,0,7.02-3.14,7.02-7.02v-49.57l-21.25-21.24C-220.68,441.73-220.02,443.28-220.02,444.99z"/>
	<path fill="#ADDDF8" d="M-242.7,471.5c1.34-0.78,2.51-1.45,4.96-1.45c2.18,0,3.34,0.53,4.51,1.19v-8.02h-17.15v10.02
		c0.43,0.04,0.87,0.07,1.37,0.07C-245.83,473.31-244.17,472.35-242.7,471.5z"/>
</g>
<path fill="#FFFFFF" d="M-282.69,495.73c2.44,0,3.6,0.67,4.94,1.45c1.46,0.85,3.12,1.81,6.29,1.81c3.17,0,4.83-0.96,6.29-1.81
	c1.34-0.78,2.49-1.45,4.94-1.45c2.45,0,3.6,0.67,4.94,1.45c1.46,0.85,3.12,1.81,6.29,1.81c3.17,0,4.83-0.96,6.29-1.81
	c1.34-0.78,2.49-1.45,4.94-1.45c2.45,0,3.6,0.67,4.94,1.45c1.46,0.85,3.12,1.81,6.29,1.81c3.17,0,4.83-0.96,6.29-1.81
	c1.34-0.78,2.5-1.45,4.94-1.45c0.05,0,0.09-0.01,0.14-0.01v-2.66c-0.04,0-0.09-0.01-0.14-0.01c-3.17,0-4.83,0.96-6.29,1.81
	c-1.34,0.78-2.5,1.45-4.95,1.45c-2.45,0-3.6-0.67-4.94-1.45c-1.46-0.85-3.12-1.81-6.29-1.81c-3.17,0-4.83,0.96-6.29,1.81
	c-1.34,0.78-2.5,1.45-4.94,1.45c-2.45,0-3.6-0.67-4.94-1.45c-1.46-0.85-3.12-1.81-6.29-1.81c-3.17,0-4.83,0.96-6.29,1.81
	c-1.34,0.78-2.49,1.45-4.94,1.45c-2.44,0-3.6-0.67-4.94-1.45c-1.46-0.85-3.12-1.81-6.29-1.81c-0.05,0-0.09,0.01-0.14,0.01v2.66
	C-282.78,495.72-282.74,495.73-282.69,495.73z"/>
<path fill="#FFFFFF" d="M-282.83,478.61c2.46,0,3.62,0.67,4.96,1.45c1.47,0.85,3.13,1.81,6.31,1.81s4.84-0.96,6.31-1.81
	c1.35-0.78,2.51-1.45,4.97-1.45c2.46,0,3.62,0.67,4.97,1.45c1.47,0.85,3.13,1.81,6.31,1.81c3.18,0,4.84-0.96,6.31-1.81
	c1.34-0.78,2.51-1.45,4.96-1.45c2.46,0,3.62,0.67,4.97,1.45c1.47,0.85,3.13,1.81,6.31,1.81c3.18,0,4.84-0.96,6.31-1.81
	c1.35-0.78,2.51-1.45,4.97-1.45l0,0v-2.68l0,0c-3.18,0-4.84,0.96-6.31,1.81c-1.35,0.78-2.51,1.45-4.97,1.45
	c-2.46,0-3.62-0.67-4.97-1.45c-1.47-0.85-3.13-1.81-6.31-1.81c-3.18,0-4.84,0.96-6.31,1.81c-1.34,0.78-2.51,1.45-4.96,1.45
	c-2.46,0-3.62-0.67-4.97-1.45c-1.47-0.85-3.13-1.81-6.31-1.81s-4.84,0.96-6.31,1.81c-1.35,0.78-2.51,1.45-4.96,1.45
	s-3.62-0.67-4.96-1.45c-1.47-0.85-3.13-1.81-6.31-1.81h0L-282.83,478.61L-282.83,478.61z"/>
<path fill="#FFFFFF" d="M-282.69,487.17c2.45,0,3.6,0.67,4.94,1.45c1.46,0.85,3.12,1.81,6.29,1.81c3.17,0,4.83-0.96,6.29-1.81
	c1.34-0.78,2.49-1.45,4.94-1.45c2.45,0,3.6,0.67,4.94,1.45c1.46,0.85,3.12,1.81,6.29,1.81c3.17,0,4.83-0.96,6.29-1.81
	c1.34-0.78,2.49-1.45,4.94-1.45c2.45,0,3.6,0.67,4.94,1.45c1.46,0.85,3.12,1.81,6.29,1.81c3.17,0,4.83-0.96,6.29-1.81
	c1.34-0.78,2.5-1.45,4.94-1.45c0.05,0,0.09-0.01,0.14-0.01v-2.66c-0.04,0-0.09-0.01-0.14-0.01c-3.17,0-4.83,0.96-6.29,1.81
	c-1.34,0.78-2.5,1.45-4.95,1.45c-2.45,0-3.6-0.67-4.94-1.45c-1.46-0.85-3.12-1.81-6.29-1.81c-3.17,0-4.83,0.96-6.29,1.81
	c-1.34,0.78-2.5,1.45-4.94,1.45c-2.45,0-3.6-0.67-4.94-1.45c-1.46-0.85-3.12-1.81-6.29-1.81c-3.17,0-4.83,0.96-6.29,1.81
	c-1.34,0.78-2.49,1.45-4.94,1.45c-2.45,0-3.6-0.67-4.94-1.45c-1.46-0.85-3.12-1.81-6.29-1.81c-0.05,0-0.09,0.01-0.14,0.01v2.66
	C-282.78,487.16-282.74,487.17-282.69,487.17z"/>
<path fill="#E94B40" d="M-231.88,453.81h-1.34v6.74h1.34c0.74,0,1.34,0.6,1.34,1.34v-9.42
	C-230.54,453.21-231.14,453.81-231.88,453.81z"/>
<path fill="#E94B40" d="M-231.88,463.22h-1.34v8.02c0.15,0.09,0.3,0.17,0.46,0.26c0.66,0.38,1.37,0.78,2.22,1.11v-10.73
	C-230.54,462.62-231.14,463.22-231.88,463.22z"/>
<path fill="#E94B40" d="M-231.88,451.12c0.74,0,1.34,0.6,1.34,1.34v-7.47c0-2.17,1.75-3.93,3.92-3.95c2.16,0.02,3.92,1.78,3.92,3.95
	c0,0.74,0.6,1.34,1.34,1.34c0.74,0,1.34-0.6,1.34-1.34c0-1.71-0.66-3.26-1.72-4.44c-1.2-1.33-2.92-2.17-4.85-2.19h-0.07
	c-3.63,0.04-6.57,3-6.57,6.63v6.13H-231.88z"/>
<path fill="#E94B40" d="M-250.38,473.24v-10.02h-1.34c-0.74,0-1.34-0.6-1.34-1.34v10.74C-252.31,472.91-251.44,473.13-250.38,473.24
	z"/>
<path fill="#E94B40" d="M-251.72,451.12h1.34v-6.13c0-2.17,1.75-3.93,3.92-3.95c2.16,0.02,3.92,1.78,3.92,3.95
	c0,0.74,0.6,1.34,1.34,1.34c0.74,0,1.34-0.6,1.34-1.34c0-1.1-0.27-2.13-0.75-3.04c-1.1-2.11-3.29-3.57-5.82-3.59
	c-0.02,0-0.04,0-0.07,0c-3.63,0.04-6.57,3-6.57,6.63v7.47C-253.06,451.72-252.46,451.12-251.72,451.12z"/>
<path fill="#E94B40" d="M-251.72,460.54h1.34v-6.74h-1.34c-0.74,0-1.34-0.6-1.34-1.34v9.42
	C-253.06,461.14-252.46,460.54-251.72,460.54z"/>
<path fill="#E94B40" d="M-251.72,453.81h19.84c0.74,0,1.34-0.6,1.34-1.34c0-0.74-0.6-1.34-1.34-1.34h-19.84
	c-0.74,0-1.34,0.6-1.34,1.34C-253.06,453.21-252.46,453.81-251.72,453.81z"/>
<path fill="#E94B40" d="M-251.72,463.22h19.84c0.74,0,1.34-0.6,1.34-1.34s-0.6-1.34-1.34-1.34h-19.84c-0.74,0-1.34,0.6-1.34,1.34
	S-252.46,463.22-251.72,463.22z"/>
<path fill="#014871" d="M-282.69,493.05c3.17,0,4.82,0.96,6.29,1.81c1.34,0.78,2.49,1.45,4.94,1.45c2.45,0,3.6-0.67,4.94-1.45
	c1.46-0.85,3.12-1.81,6.29-1.81c3.17,0,4.83,0.96,6.29,1.81c1.34,0.78,2.5,1.45,4.94,1.45c2.45,0,3.6-0.67,4.94-1.45
	c1.46-0.85,3.12-1.81,6.29-1.81c3.17,0,4.83,0.96,6.29,1.81c1.34,0.78,2.5,1.45,4.94,1.45c2.45,0,3.61-0.67,4.95-1.45
	c1.46-0.85,3.12-1.81,6.29-1.81c0.05,0,0.09,0.01,0.14,0.01v-5.9c-0.04,0-0.09,0.01-0.14,0.01c-2.45,0-3.61,0.67-4.94,1.45
	c-1.46,0.85-3.12,1.81-6.29,1.81c-3.17,0-4.83-0.96-6.29-1.81c-1.34-0.78-2.5-1.45-4.94-1.45c-2.45,0-3.6,0.67-4.94,1.45
	c-1.46,0.85-3.12,1.81-6.29,1.81c-3.17,0-4.83-0.96-6.29-1.81c-1.34-0.78-2.5-1.45-4.94-1.45c-2.45,0-3.6,0.67-4.94,1.45
	c-1.46,0.85-3.12,1.81-6.29,1.81c-3.17,0-4.82-0.96-6.29-1.81c-1.34-0.78-2.49-1.45-4.94-1.45c-0.05,0-0.09-0.01-0.14-0.01v5.9
	C-282.78,493.06-282.74,493.05-282.69,493.05z"/>
<path fill="#014871" d="M-282.69,484.49c3.17,0,4.82,0.96,6.29,1.81c1.34,0.78,2.49,1.45,4.94,1.45c2.45,0,3.6-0.67,4.94-1.45
	c1.46-0.85,3.12-1.81,6.29-1.81c3.17,0,4.83,0.96,6.29,1.81c1.34,0.78,2.5,1.45,4.94,1.45c2.45,0,3.6-0.67,4.94-1.45
	c1.46-0.85,3.12-1.81,6.29-1.81c3.17,0,4.83,0.96,6.29,1.81c1.34,0.78,2.5,1.45,4.94,1.45c2.45,0,3.61-0.67,4.95-1.45
	c1.46-0.85,3.12-1.81,6.29-1.81c0.05,0,0.09,0.01,0.14,0.01v-5.89l0,0c-2.46,0-3.62,0.67-4.97,1.45c-1.47,0.85-3.13,1.81-6.31,1.81
	c-3.18,0-4.84-0.96-6.31-1.81c-1.35-0.78-2.51-1.45-4.97-1.45c-2.46,0-3.62,0.67-4.96,1.45c-1.47,0.85-3.13,1.81-6.31,1.81
	c-3.18,0-4.84-0.96-6.31-1.81c-1.35-0.78-2.51-1.45-4.97-1.45c-2.46,0-3.62,0.67-4.97,1.45c-1.47,0.85-3.13,1.81-6.31,1.81
	s-4.84-0.96-6.31-1.81c-1.34-0.78-2.51-1.45-4.96-1.45h0v5.89C-282.78,484.5-282.74,484.49-282.69,484.49z"/>
<path fill="#014871" d="M-215.17,495.72c-0.04,0-0.09,0.01-0.14,0.01c-2.45,0-3.61,0.67-4.94,1.45c-1.46,0.85-3.12,1.81-6.29,1.81
	c-3.17,0-4.83-0.96-6.29-1.81c-1.34-0.78-2.5-1.45-4.94-1.45c-2.45,0-3.6,0.67-4.94,1.45c-1.46,0.85-3.12,1.81-6.29,1.81
	c-3.17,0-4.83-0.96-6.29-1.81c-1.34-0.78-2.5-1.45-4.94-1.45c-2.45,0-3.6,0.67-4.94,1.45c-1.46,0.85-3.12,1.81-6.29,1.81
	c-3.17,0-4.82-0.96-6.29-1.81c-1.34-0.78-2.49-1.45-4.94-1.45c-0.05,0-0.09-0.01-0.14-0.01v5.7h67.66V495.72z"/>
<path fill="#014871" d="M-282.83,475.93c3.18,0,4.84,0.96,6.31,1.81c1.34,0.78,2.51,1.45,4.96,1.45s3.62-0.67,4.96-1.45
	c1.47-0.85,3.13-1.81,6.31-1.81s4.84,0.96,6.31,1.81c1.35,0.78,2.51,1.45,4.97,1.45c2.46,0,3.62-0.67,4.96-1.45
	c1.47-0.85,3.13-1.81,6.31-1.81c3.18,0,4.84,0.96,6.31,1.81c1.35,0.78,2.51,1.45,4.97,1.45c2.46,0,3.62-0.67,4.97-1.45
	c1.47-0.85,3.13-1.81,6.31-1.81l0,0v-5.88l0,0c-2.46,0-3.62,0.67-4.97,1.45c-1.47,0.85-3.13,1.81-6.31,1.81
	c-1.75,0-3.04-0.3-4.09-0.7c-0.86-0.33-1.56-0.73-2.22-1.11c-0.15-0.09-0.31-0.18-0.46-0.26c-1.17-0.66-2.33-1.19-4.51-1.19
	c-2.46,0-3.62,0.67-4.96,1.45c-1.47,0.85-3.13,1.81-6.31,1.81c-0.5,0-0.94-0.03-1.37-0.07c-1.07-0.11-1.94-0.33-2.68-0.61
	c-0.87-0.33-1.59-0.74-2.26-1.12c-0.59-0.34-1.15-0.66-1.8-0.91c-0.82-0.32-1.79-0.54-3.17-0.54c-2.46,0-3.62,0.67-4.97,1.45
	c-1.47,0.85-3.13,1.81-6.31,1.81s-4.84-0.96-6.31-1.81c-1.34-0.78-2.51-1.45-4.96-1.45h0L-282.83,475.93L-282.83,475.93z"/>
</svg>
