<?xml version="1.0" encoding="utf-8"?>
<!-- Generator: Adobe Illustrator 19.0.0, SVG Export Plug-In . SVG Version: 6.00 Build 0)  -->
<svg version="1.1" id="Capa_1" xmlns="http://www.w3.org/2000/svg" xmlns:xlink="http://www.w3.org/1999/xlink" x="0px" y="0px"
	 viewBox="-298.61 420.28 99.21 99.21" enable-background="new -298.61 420.28 99.21 99.21" xml:space="preserve">
<path opacity="0.5" fill="#ADDDF8" d="M-207.52,518.39h-82.96c-3.88,0-7.02-3.14-7.02-7.02v-82.96c0-3.88,3.14-7.02,7.02-7.02h82.96
	c3.88,0,7.02,3.14,7.02,7.02v82.96C-200.5,515.25-203.64,518.39-207.52,518.39z"/>
<g opacity="0.5">
	<path fill="#ADDDF8" d="M-218.51,492.19c0.07,1.55,0.06,2.91-0.42,3.59c-0.2,0.28-0.47,0.46-0.87,0.46h-0.05
		c-0.28,0-0.56-0.09-0.85-0.24c-0.54-0.27-1.04-0.77-1.42-1.41c-0.39-0.68-0.64-1.5-0.6-2.39l0.02-0.18l1.76-19.71
		c-0.09-1.01-1.79-1.93-2.33-2.48c-0.4-0.42-0.66-1.13-0.66-1.96c0,0,0.01-0.63,0.03-1.67l-7.06-7.06
		c3.29,3.93,5.28,8.99,5.28,14.51c0,4.39-1.26,8.49-3.43,11.96c-0.25,0.41-0.52,0.8-0.8,1.19c-0.07,0.1-0.14,0.2-0.21,0.3
		c-0.18,0.25-0.37,0.49-0.57,0.73c-0.31,0.38-0.62,0.75-0.95,1.11c-4.13,4.49-10.05,7.3-16.63,7.3c-12.47,0-22.59-10.12-22.59-22.59
		c0-0.37,0.01-0.74,0.03-1.1c0.29-6.13,3.04-11.63,7.27-15.52c0.36-0.33,0.73-0.65,1.11-0.95c0.34-0.27,0.68-0.53,1.03-0.78
		l-3.91-3.91l-7.63-7.63c0,0,0.01,0.06,0.02,0.28l0.05,1.61l0.07,2.13l0.37,11.2c0,0.82-0.26,1.54-0.66,1.95
		c-0.53,0.55-1.69,1.47-1.78,2.48l0.19,4.37l0.29,6.61l0.24,5.61l0.53,12.21c0.07,1.51-0.43,2.85-1.19,3.54
		c-0.34,0.31-0.72,0.5-1.14,0.5h-0.05c-0.44,0-0.85-0.21-1.2-0.55l22.48,22.72h47.2c3.88,0,7.02-3.14,7.02-7.02v-49.51l-18.01-18.01
		V492.19z"/>
	<path fill="#ADDDF8" d="M-274.6,445.96l0.13,9.51h0.75l0.2-8.43l0.05-2.01l-1.19-1.19c0.02,0.06,0.04,0.12,0.04,0.19L-274.6,445.96
		z"/>
	<path fill="#ADDDF8" d="M-276.49,455.46h1.03l0.13-10.24l-1.33-1.33c0.01,0.04,0.02,0.09,0.02,0.13L-276.49,455.46z"/>
	<path fill="#ADDDF8" d="M-278.56,444.03l0.16,11.44h1.03l0.13-10.24l-1.33-1.33C-278.57,443.94-278.56,443.98-278.56,444.03z"/>
</g>
<g>
	<g>
		<path fill="#FFFFFF" d="M-230.96,459.12c-0.85-1.01-1.79-1.95-2.8-2.8c-0.72-0.6-1.47-1.16-2.26-1.67
			c-2.75-1.78-5.9-2.97-9.29-3.42c-0.97-0.13-1.96-0.2-2.96-0.2c-4.39,0-8.49,1.26-11.96,3.43c-0.41,0.25-0.8,0.52-1.19,0.8
			c-0.35,0.25-0.69,0.51-1.03,0.78c-0.38,0.31-0.75,0.62-1.11,0.95c-4.24,3.9-6.98,9.39-7.27,15.52c-0.02,0.37-0.03,0.73-0.03,1.1
			c0,12.47,10.12,22.59,22.59,22.59c6.58,0,12.5-2.81,16.63-7.3c0.33-0.36,0.65-0.73,0.95-1.11c0.19-0.24,0.38-0.48,0.57-0.73
			c0.07-0.1,0.14-0.2,0.21-0.3c0.28-0.39,0.55-0.78,0.8-1.19c2.17-3.47,3.43-7.57,3.43-11.96
			C-225.67,468.11-227.66,463.05-230.96,459.12z M-235.47,481.22c-0.06,0.1-0.12,0.19-0.17,0.29c-0.17,0.28-0.35,0.55-0.54,0.81
			c-0.29,0.4-0.59,0.78-0.92,1.15c-2.73,3.1-6.72,5.07-11.17,5.07c-8.22,0-14.9-6.68-14.9-14.9c0-1.98,0.4-3.87,1.1-5.6
			c0.88-2.15,2.25-4.05,3.97-5.56c0.37-0.32,0.75-0.63,1.15-0.92c0.3-0.22,0.62-0.42,0.94-0.62c0.05-0.03,0.11-0.06,0.16-0.1
			c0.42-0.25,0.85-0.48,1.3-0.69c1.91-0.9,4.04-1.41,6.29-1.41c1.2,0,2.36,0.16,3.48,0.43c6.54,1.57,11.42,7.46,11.42,14.47
			c0,2.25-0.52,4.37-1.41,6.29C-234.99,480.37-235.22,480.8-235.47,481.22z"/>
		<path fill="#FFFFFF" d="M-245.96,459.76c-0.75-0.12-1.52-0.21-2.3-0.21c-2.02,0-3.93,0.43-5.67,1.2c-0.45,0.2-0.89,0.43-1.32,0.67
			c-0.05,0.03-0.11,0.07-0.16,0.1c-0.32,0.19-0.64,0.39-0.94,0.61c-0.4,0.28-0.78,0.59-1.15,0.91c-1.39,1.22-2.54,2.7-3.36,4.37
			c-0.93,1.88-1.46,3.98-1.46,6.21c0,7.76,6.31,14.08,14.07,14.08c4.22,0,8-1.88,10.58-4.83c0.32-0.37,0.63-0.75,0.91-1.15
			c0.19-0.27,0.36-0.54,0.53-0.82c0.06-0.09,0.12-0.19,0.17-0.28c0.25-0.43,0.47-0.87,0.67-1.32c0.77-1.74,1.2-3.65,1.2-5.67
			C-234.19,466.66-239.3,460.87-245.96,459.76z"/>
	</g>
	<g>
		<path fill="#014871" d="M-244.79,459.16c-1.12-0.27-2.28-0.43-3.48-0.43c-2.25,0-4.37,0.52-6.29,1.41
			c-0.45,0.21-0.88,0.44-1.3,0.69c-0.05,0.03-0.11,0.06-0.16,0.1c-0.32,0.2-0.63,0.4-0.94,0.62c-0.4,0.29-0.78,0.59-1.15,0.92
			c-1.72,1.51-3.09,3.41-3.97,5.56c-0.71,1.73-1.1,3.62-1.1,5.6c0,8.22,6.68,14.9,14.9,14.9c4.45,0,8.43-1.97,11.17-5.07
			c0.32-0.37,0.63-0.75,0.92-1.15c0.19-0.26,0.37-0.53,0.54-0.81c0.06-0.1,0.12-0.19,0.17-0.29c0.25-0.42,0.48-0.85,0.69-1.3
			c0.9-1.91,1.41-4.04,1.41-6.29C-233.37,466.62-238.25,460.73-244.79,459.16z M-235.39,479.3c-0.2,0.45-0.43,0.89-0.67,1.32
			c-0.05,0.1-0.12,0.19-0.17,0.28c-0.17,0.28-0.34,0.56-0.53,0.82c-0.28,0.4-0.59,0.78-0.91,1.15c-2.58,2.95-6.36,4.83-10.58,4.83
			c-7.76,0-14.07-6.32-14.07-14.08c0-2.23,0.54-4.33,1.46-6.21c0.83-1.67,1.97-3.16,3.36-4.37c0.37-0.32,0.75-0.63,1.15-0.91
			c0.31-0.22,0.62-0.42,0.94-0.61c0.05-0.03,0.11-0.07,0.16-0.1c0.43-0.25,0.87-0.47,1.32-0.67c1.74-0.77,3.65-1.2,5.67-1.2
			c0.79,0,1.55,0.08,2.3,0.21c6.67,1.11,11.77,6.9,11.77,13.87C-234.19,475.65-234.62,477.57-235.39,479.3z"/>
		<path fill="#014871" d="M-218.51,492.19v-48.56c0-0.04-0.11-0.08-0.3-0.08c-0.82-0.03-3.05,0.44-3.66,2.89
			c-1.04,4.19-1.35,15.49-1.43,19.75c-0.02,1.04-0.03,1.67-0.03,1.67c0,0.82,0.26,1.54,0.66,1.96c0.53,0.55,2.24,1.47,2.33,2.48
			l-1.76,19.71l-0.02,0.18c-0.04,0.89,0.21,1.72,0.6,2.39c0.37,0.65,0.88,1.14,1.42,1.41c0.28,0.14,0.57,0.24,0.85,0.24h0.05
			c0.4,0,0.67-0.18,0.87-0.46C-218.44,495.1-218.44,493.74-218.51,492.19z"/>
		<path fill="#014871" d="M-272.88,445.62l-0.05-1.61c-0.01-0.21-0.13-0.39-0.26-0.39c-0.15,0-0.26,0.18-0.26,0.42l-0.02,0.98
			l-0.05,2.01l-0.2,8.43h-0.75l-0.13-9.51l-0.03-1.93c0-0.07-0.01-0.13-0.04-0.19c-0.04-0.12-0.12-0.2-0.21-0.21
			c-0.01,0-0.01-0.01-0.02-0.01h-0.17c-0.14,0-0.25,0.18-0.26,0.41l-0.02,1.2l-0.13,10.24h-1.03l-0.16-11.44
			c0-0.05-0.01-0.09-0.02-0.13c-0.04-0.16-0.13-0.27-0.24-0.27h-0.17c-0.15,0-0.26,0.18-0.26,0.41l-0.16,11.44h-0.75l-0.25-10.63
			l-0.02-0.8c0-0.11-0.03-0.2-0.07-0.28c-0.05-0.09-0.11-0.14-0.19-0.14h-0.01c-0.14,0-0.25,0.17-0.26,0.39l-0.02,0.59l-0.04,1.29
			l-0.43,13.07c0,0.82,0.26,1.54,0.66,1.95c0.53,0.55,1.69,1.47,1.78,2.48l-0.4,9.29l-0.14,3.35l-0.02,0.41l-0.68,15.74v0.02
			c-0.06,1.34,0.32,2.55,0.93,3.29l0.2,0.2c0.35,0.34,0.76,0.55,1.2,0.55h0.05c0.42,0,0.8-0.19,1.14-0.5
			c0.76-0.69,1.25-2.03,1.19-3.54l-0.53-12.21l-0.24-5.61l-0.29-6.61l-0.19-4.37c0.09-1.01,1.24-1.93,1.78-2.48
			c0.4-0.41,0.66-1.13,0.66-1.95l-0.37-11.2L-272.88,445.62z"/>
	</g>
</g>
</svg>
