<?xml version="1.0" encoding="utf-8"?>
<!-- Generator: Adobe Illustrator 19.0.0, SVG Export Plug-In . SVG Version: 6.00 Build 0)  -->
<svg version="1.1" id="Capa_1" xmlns="http://www.w3.org/2000/svg" xmlns:xlink="http://www.w3.org/1999/xlink" x="0px" y="0px"
	 viewBox="-298.61 420.28 99.21 99.21" enable-background="new -298.61 420.28 99.21 99.21" xml:space="preserve">
<path opacity="0.5" fill="#ADDDF8" d="M-207.52,518.39h-82.96c-3.88,0-7.02-3.14-7.02-7.02v-82.96c0-3.88,3.14-7.02,7.02-7.02h82.96
	c3.88,0,7.02,3.14,7.02,7.02v82.96C-200.5,515.25-203.64,518.39-207.52,518.39z"/>
<g opacity="0.5">
	<path fill="#ADDDF8" d="M-232.85,458.63c0.46-0.18,0.74-0.63,0.75-1.11l-1.03,0.42c-0.06,0.02-0.12,0.03-0.17,0.03
		c-0.18,0-0.35-0.11-0.43-0.28c-0.09-0.23,0.02-0.49,0.25-0.59l1.02-0.41c-0.22-0.22-0.51-0.37-0.84-0.37
		c-0.16,0-0.31,0.03-0.45,0.09c-0.61,0.24-0.91,0.94-0.67,1.55C-234.17,458.56-233.46,458.88-232.85,458.63z"/>
	<path fill="#ADDDF8" d="M-239.73,450.67c0.87-0.35,1.36-1.25,1.22-2.14l-0.54,0.21c-0.23,0.1-0.49-0.02-0.59-0.24
		c-0.09-0.23,0.02-0.5,0.25-0.59l0.54-0.22c-0.51-0.74-1.48-1.05-2.36-0.7c-1.02,0.41-1.51,1.56-1.11,2.58
		C-241.9,450.58-240.75,451.08-239.73,450.67z"/>
	<path fill="#ADDDF8" d="M-200.5,511.37v-34.55l-29.92-29.84l-0.1,1.19c-0.38-0.45-0.86-0.82-1.42-1.06
		c-0.94-0.41-1.99-0.42-2.95-0.03l-1.44,0.57l0.83,2.08c0.16,0.41,0.24,0.81,0.29,1.23c0.39,0.19,0.75,0.45,1.06,0.77l2.99,3.02
		c0.02,0.02,0.03,0.04,0.05,0.06l-0.95,10.9l-5.33,2.14l-9.09,3.65c-0.39,0.16-0.8,0.23-1.21,0.23c-1.56,0-3.06-1.09-3.71-2.72
		l-2.92-7.26c-0.41-1.02-0.45-2.11-0.11-3.08c0.34-1,1.03-1.75,1.95-2.12l1.29-0.52c-0.14-0.01-0.27-0.03-0.41-0.07l-1.36-0.37
		l-0.15,0.25c-0.67,1.04-2.18,1.57-3.31,1.17l-0.02-0.01l-0.19,0.32c-0.59,0.99-1.96,1.58-3.1,1.34l-0.59-0.13l-0.95,1.15
		c-0.64,0.77-1.76,1.2-2.74,1.06l-1.27-0.18l-0.81,1.21c-0.36,0.55-1.14,0.86-1.79,0.72h-0.03c-0.23-0.05-0.42-0.13-0.59-0.23
		l11.68,11.68h25.73v24.12H-270l20.33,20.33h42.15c1.36,0,2.62-0.39,3.69-1.06l2.27-2.27C-200.89,513.99-200.5,512.72-200.5,511.37z
		"/>
</g>
<g>
	<g>
		<rect x="-270.1" y="473.94" fill="#FFFFFF" width="39.02" height="24.12"/>
	</g>
	<g>
		<g>
			<path fill="#014871" d="M-270.1,498.06h39.02v-15.47h-39.02V498.06z M-255.54,487.84v6.08l-2.46-3.04L-255.54,487.84z
				 M-259.51,487.84v6.08l-2.46-3.04L-259.51,487.84z M-263.49,487.84v6.08l-2.46-3.04L-263.49,487.84z"/>
		</g>
		<g>
			<rect x="-270.1" y="473.94" fill="#014871" width="39.02" height="4.54"/>
		</g>
		<g id="XMLID_3_">
			<g>
				<path fill="#E94B40" d="M-231.57,456.34c-0.54-0.79-1.6-1.14-2.51-0.78c-1.08,0.44-1.6,1.66-1.16,2.74
					c0.32,0.8,1.09,1.32,1.95,1.32c0.26,0,0.53-0.05,0.78-0.16c0.93-0.37,1.44-1.34,1.29-2.29l0.35-0.15c0.01,0,0.01,0,0.02,0
					c0.09,0.33,0.15,0.66,0.14,1l-0.07,4.25c-0.02,1.2-0.63,2.19-1.6,2.58l-14.41,5.79c-0.27,0.11-0.57,0.17-0.87,0.17
					c-1.2,0-2.35-0.86-2.87-2.15l-2.91-7.25c-0.33-0.82-0.36-1.69-0.1-2.45c0.25-0.74,0.77-1.3,1.43-1.57l3.19-1.28
					c1.22,1.9,3.64,2.74,5.8,1.87l4.99-2.01c1.71-0.69,2.78-2.25,2.97-3.96c0.14,0.11,0.28,0.21,0.41,0.34l2.99,3.02
					c0.23,0.24,0.43,0.52,0.59,0.83c-0.01,0-0.01,0.01-0.02,0.01L-231.57,456.34z"/>
				<path fill="#014871" d="M-233.47,457.1l1.02-0.41c0.11,0.11,0.2,0.23,0.26,0.38c0.06,0.15,0.09,0.31,0.09,0.46l-1.03,0.42
					c-0.06,0.02-0.12,0.03-0.17,0.03c-0.18,0-0.35-0.11-0.43-0.28C-233.81,457.46-233.71,457.2-233.47,457.1z"/>
				<path fill="#014871" d="M-234.08,455.57c0.91-0.36,1.97-0.01,2.51,0.78c0.09,0.12,0.17,0.25,0.22,0.4
					c0.06,0.15,0.09,0.29,0.12,0.44c0.15,0.95-0.36,1.92-1.29,2.29c-0.24,0.11-0.51,0.16-0.78,0.16c-0.86,0-1.63-0.51-1.95-1.32
					C-235.68,457.23-235.16,456-234.08,455.57z M-233.3,456.32c-0.16,0-0.31,0.03-0.45,0.09c-0.61,0.24-0.91,0.94-0.67,1.55
					c0.24,0.6,0.95,0.91,1.56,0.67c0.46-0.18,0.74-0.63,0.75-1.11c0-0.15-0.03-0.3-0.09-0.46c-0.06-0.15-0.16-0.27-0.26-0.38
					C-232.68,456.47-232.97,456.32-233.3,456.32z"/>
				<path fill="#F8F1A1" d="M-237.72,451.6c0.27-0.12,0.57-0.17,0.87-0.17c0.58,0,1.15,0.21,1.66,0.58
					c-0.18,1.71-1.26,3.27-2.97,3.96l-4.99,2.01c-2.16,0.86-4.58,0.03-5.8-1.87L-237.72,451.6z"/>
				<path fill="#014871" d="M-231.94,447.1c-0.94-0.41-1.99-0.42-2.95-0.03l-1.44,0.57l-2.18,0.88l-0.54,0.21
					c-0.23,0.1-0.49-0.02-0.59-0.24c-0.09-0.23,0.02-0.5,0.25-0.59l0.54-0.22l2.19-0.87l1.44-0.58c1.17-0.47,2.47-0.46,3.64,0.04
					c1.17,0.5,2.08,1.43,2.55,2.61l0.79,1.97c0.48,1.18,0.47,2.47-0.04,3.65c-0.37,0.87-0.99,1.6-1.77,2.12
					c-0.26,0.16-0.53,0.31-0.82,0.43c-0.01,0-0.01,0-0.02,0l-0.35,0.15c-0.03-0.15-0.06-0.29-0.12-0.44
					c-0.06-0.15-0.14-0.28-0.22-0.4l0.35-0.15c0.01,0,0.01-0.01,0.02-0.01c0.28-0.12,0.54-0.27,0.79-0.45
					c0.57-0.4,1.03-0.95,1.31-1.61c0.4-0.94,0.41-1.99,0.03-2.95l-0.8-1.98C-230.25,448.25-230.99,447.51-231.94,447.1z"/>
				<path fill="#F8F1A1" d="M-235.2,450.95c-0.91-0.47-1.95-0.56-2.86-0.19l-13.11,5.27c-0.14-0.01-0.27-0.03-0.41-0.07l-1.36-0.37
					l-0.15,0.25c-0.67,1.04-2.18,1.57-3.31,1.17l-0.02-0.01l-0.19,0.32c-0.59,0.99-1.96,1.58-3.1,1.34l-0.59-0.13l-0.95,1.15
					c-0.64,0.77-1.76,1.2-2.74,1.06l-1.27-0.18l-0.81,1.21c-0.36,0.55-1.14,0.86-1.79,0.72h-0.03c-1.06-0.24-1.45-1.01-1.82-1.83
					l-0.01-0.01c-0.61-1.53-1.12-2.77,4.02-4.83l14.25-5.72c-0.83-2.41,0.36-5.05,2.75-6.01l4.99-2.01
					c2.45-0.99,5.26,0.21,6.25,2.67l0.83,2.08l-2.19,0.87c-0.51-0.74-1.48-1.05-2.36-0.7c-1.02,0.41-1.51,1.56-1.11,2.58
					c0.41,1.02,1.56,1.51,2.58,1.11c0.87-0.35,1.36-1.25,1.22-2.14l2.18-0.88l0.83,2.08C-235.33,450.13-235.25,450.53-235.2,450.95z
					"/>
				<path fill="#F8F1A1" d="M-234.14,451.72l2.99,3.02c0.3,0.3,0.53,0.65,0.74,1.01c-0.24,0.17-0.5,0.33-0.79,0.45
					c-0.16-0.3-0.36-0.58-0.59-0.83l-2.99-3.02c-0.13-0.13-0.27-0.23-0.41-0.34c-0.5-0.37-1.08-0.58-1.66-0.58
					c-0.3,0-0.6,0.06-0.87,0.17l-11.22,4.5l-3.19,1.28c-0.66,0.27-1.17,0.83-1.43,1.57c-0.26,0.77-0.23,1.64,0.1,2.45l2.91,7.25
					c0.52,1.29,1.67,2.15,2.87,2.15c0.3,0,0.6-0.06,0.87-0.17l14.41-5.79c0.97-0.39,1.58-1.38,1.6-2.58l0.07-4.25
					c0.01-0.34-0.05-0.67-0.14-1c0.28-0.12,0.55-0.26,0.82-0.43c0.15,0.47,0.23,0.95,0.23,1.45l-0.08,4.24
					c-0.02,1.55-0.87,2.89-2.16,3.41l-14.41,5.79c-0.39,0.16-0.8,0.23-1.21,0.23c-1.56,0-3.06-1.09-3.71-2.72l-2.92-7.26
					c-0.41-1.02-0.45-2.11-0.11-3.08c0.34-1,1.03-1.75,1.95-2.12l1.29-0.52l13.11-5.27c0.91-0.37,1.95-0.27,2.86,0.19
					C-234.81,451.14-234.45,451.4-234.14,451.72z"/>
			</g>
		</g>
	</g>
</g>
</svg>
